<svg xmlns="http://www.w3.org/2000/svg" xmlns:xlink="http://www.w3.org/1999/xlink">

<symbol id="github" fill-rule="evenodd" clip-rule="evenodd" stroke-linejoin="round" stroke-miterlimit="1.414" viewBox="0 0 16 16"><path d="M8 0C3.58 0 0 3.582 0 8c0 3.535 2.292 6.533 5.47 7.59.4.075.547-.172.547-.385 0-.19-.007-.693-.01-1.36-2.226.483-2.695-1.073-2.695-1.073-.364-.924-.89-1.17-.89-1.17-.725-.496.056-.486.056-.486.803.056 1.225.824 1.225.824.714 1.223 1.873.87 2.33.665.072-.517.278-.87.507-1.07-1.777-.2-3.644-.888-3.644-3.953 0-.873.31-1.587.823-2.147-.09-.202-.36-1.015.07-2.117 0 0 .67-.215 2.2.82.64-.178 1.32-.266 2-.27.68.004 1.36.092 2 .27 1.52-1.035 2.19-.82 2.19-.82.43 1.102.16 1.915.08 2.117.51.56.82 1.274.82 2.147 0 3.073-1.87 3.75-3.65 3.947.28.24.54.73.54 1.48 0 1.07-.01 1.93-.01 2.19 0 .21.14.46.55.38C13.71 14.53 16 11.53 16 8c0-4.418-3.582-8-8-8"/>
</symbol>
<symbol id="youtube" fill-rule="evenodd" clip-rule="evenodd" stroke-linejoin="round" stroke-miterlimit="1.414" viewBox="0 0 16 16"><path d="M0 7.345c0-1.294.16-2.59.16-2.59s.156-1.1.636-1.587c.608-.637 1.408-.617 1.764-.684C3.84 2.36 8 2.324 8 2.324s3.362.004 5.6.166c.314.038.996.04 1.604.678.48.486.636 1.588.636 1.588S16 6.05 16 7.346v1.258c0 1.296-.16 2.59-.16 2.59s-.156 1.102-.636 1.588c-.608.638-1.29.64-1.604.678-2.238.162-5.6.166-5.6.166s-4.16-.037-5.44-.16c-.356-.067-1.156-.047-1.764-.684-.48-.487-.636-1.587-.636-1.587S0 9.9 0 8.605v-1.26zm6.348 2.73V5.58l4.323 2.255-4.32 2.24z"/>
</symbol>
<symbol id="mastodon" fill-rule="evenodd" clip-rule="evenodd" stroke-linejoin="round" stroke-miterlimit="1.414" viewBox="0 0 16 16"><path d="M15.195,5.352c0-3.347-2.193-4.328-2.193-4.328c-1.104-0.508-3.004-0.721-4.977-0.737H7.977 c-1.973,0.016-3.87,0.229-4.976,0.737c0,0-2.193,0.981-2.193,4.328c0,0.766-0.015,1.683,0.009,2.654c0.08,3.272,0.6,6.499,3.626,7.3 c1.396,0.369,2.594,0.446,3.559,0.394c1.75-0.097,2.732-0.624,2.732-0.624l-0.058-1.27c0,0-1.25,0.395-2.655,0.346 c-1.391-0.047-2.86-0.149-3.085-1.857c-0.021-0.15-0.031-0.312-0.031-0.479c0,0,1.365,0.334,3.096,0.413 c1.059,0.049,2.051-0.062,3.059-0.182c1.934-0.231,3.616-1.422,3.828-2.51C15.224,7.821,15.195,5.352,15.195,5.352z M12.609,9.664 h-1.606V5.73c0-0.83-0.349-1.25-1.047-1.25c-0.772,0-1.158,0.5-1.158,1.486V8.12H7.202V5.966c0-0.987-0.387-1.486-1.158-1.486 c-0.698,0-1.046,0.421-1.046,1.25v3.933H3.391V5.611c0-0.829,0.211-1.487,0.634-1.974c0.437-0.487,1.009-0.736,1.719-0.736 c0.822,0,1.444,0.315,1.855,0.947L8,4.519l0.4-0.67c0.412-0.632,1.033-0.947,1.855-0.947c0.71,0,1.282,0.25,1.72,0.736 c0.423,0.487,0.635,1.145,0.635,1.974V9.664z"/>
</symbol>
<symbol id="protonmail" fill-rule="evenodd" clip-rule="evenodd" stroke-linejoin="round" stroke-miterlimit="1.414" viewBox="0 0 16 16"><svg viewBox="0 0 36 36" fill="none" xmlns="http://www.w3.org/2000/svg">
<path fill-rule="evenodd" clip-rule="evenodd" d="M22.8601 13.464L22.8621 13.4656L12.8571 24.5714L0 10.4194V4.31488C0 3.61388 0.817029 3.23035 1.35631 3.67821L15.6207 15.5242C17.0001 16.6697 18.9999 16.6697 20.3793 15.5242L22.8601 13.464Z" fill="url(#paint0_linear_2219_273)"/>
<path d="M28.2857 8.95834L22.8601 13.4641L22.8621 13.4657L15.6784 19.8113C14.4546 20.8923 12.6255 20.9196 11.3701 19.8755L0 10.4195V28.5617C0 30.6185 1.66735 32.2858 3.72414 32.2858H28.2857L30.8571 20.6221L28.2857 8.95834Z" fill="url(#paint1_radial_2219_273)"/>
<path fill-rule="evenodd" clip-rule="evenodd" d="M28.2857 8.96285V32.2857L32.2758 32.2857C34.3326 32.2857 36 30.6182 36 28.5616V4.3149C36 3.6139 35.1829 3.23031 34.6437 3.67825L28.2857 8.96285Z" fill="url(#paint2_linear_2219_273)"/>
<defs>
<linearGradient id="paint0_linear_2219_273" x1="13.509" y1="24.7672" x2="1.43523" y2="-17.1751" gradientUnits="userSpaceOnUse">
<stop stop-color="#E3D9FF"/>
<stop offset="1" stop-color="#7341FF"/>
</linearGradient>
<radialGradient id="paint1_radial_2219_273" cx="0" cy="0" r="1" gradientUnits="userSpaceOnUse" gradientTransform="translate(30.7227 11.8138) scale(35.9848 33.9185)">
<stop offset="0.5561" stop-color="#6D4AFF"/>
<stop offset="0.9944" stop-color="#AA8EFF"/>
</radialGradient>
<linearGradient id="paint2_linear_2219_273" x1="47.6423" y1="50.957" x2="19.8702" y2="-8.95322" gradientUnits="userSpaceOnUse">
<stop offset="0.271" stop-color="#E3D9FF"/>
<stop offset="1" stop-color="#7341FF"/>
</linearGradient>
</defs>
</svg>
</symbol>
<symbol id="email" fill-rule="evenodd" clip-rule="evenodd" stroke-linejoin="round" stroke-miterlimit="1.414" viewBox="0 0 16 16"><svg version="1.1" id="Capa_1" xmlns="http://www.w3.org/2000/svg" xmlns:xlink="http://www.w3.org/1999/xlink"
	 viewBox="0 0 75.294 75.294" xml:space="preserve">
<path d="M66.097,12.089h-56.9C4.126,12.089,0,16.215,0,21.286v32.722c0,5.071,4.126,9.197,9.197,9.197h56.9
		c5.071,0,9.197-4.126,9.197-9.197V21.287C75.295,16.215,71.169,12.089,66.097,12.089z M61.603,18.089L37.647,33.523L13.691,18.089
		H61.603z M66.097,57.206h-56.9C7.434,57.206,6,55.771,6,54.009V21.457l29.796,19.16c0.04,0.025,0.083,0.042,0.124,0.065
		c0.043,0.024,0.087,0.047,0.131,0.069c0.231,0.119,0.469,0.215,0.712,0.278c0.025,0.007,0.05,0.01,0.075,0.016
		c0.267,0.063,0.537,0.102,0.807,0.102c0.001,0,0.002,0,0.002,0c0.002,0,0.003,0,0.004,0c0.27,0,0.54-0.038,0.807-0.102
		c0.025-0.006,0.05-0.009,0.075-0.016c0.243-0.063,0.48-0.159,0.712-0.278c0.044-0.022,0.088-0.045,0.131-0.069
		c0.041-0.023,0.084-0.04,0.124-0.065l29.796-19.16v32.551C69.295,55.771,67.86,57.206,66.097,57.206z"/>
</svg>
</symbol>
<symbol id="matrix" fill-rule="evenodd" clip-rule="evenodd" stroke-linejoin="round" stroke-miterlimit="1.414" viewBox="0 0 16 16"><svg viewBox="0 0 32 32" xmlns="http://www.w3.org/2000/svg">
   <path d="M 30,2.0000001 V 30 h -1 -2 v 2 h 5 V -3.3333334e-8 L 27,0 v 2 z"/>
   <path d="M 9.9515939,10.594002 V 12.138 h 0.043994 c 0.3845141,-0.563728 0.8932271,-1.031728 1.4869981,-1.368 0.580003,-0.322998 1.244999,-0.485 1.993002,-0.485 0.72,0 1.376999,0.139993 1.971998,0.42 0.595,0.279004 1.047001,0.771001 1.355002,1.477001 0.338003,-0.500001 0.795999,-0.941 1.376999,-1.323001 0.579999,-0.382998 1.265998,-0.574 2.059998,-0.574 0.602003,0 1.160002,0.074 1.674002,0.220006 0.514,0.148006 0.953998,0.382998 1.321999,0.706998 0.36601,0.322999 0.653001,0.746 0.859,1.268002 0.205001,0.521998 0.307994,1.15 0.307994,1.887001 v 7.632997 h -3.127 v -6.463997 c 0,-0.383002 -0.01512,-0.743002 -0.04399,-1.082003 -0.02079,-0.3072 -0.103219,-0.607113 -0.242003,-0.881998 -0.133153,-0.25081 -0.335962,-0.457777 -0.584001,-0.596002 -0.257008,-0.146003 -0.605998,-0.220006 -1.046997,-0.220006 -0.440002,0 -0.796003,0.085 -1.068,0.253002 -0.272013,0.170003 -0.485001,0.390002 -0.639001,0.662003 -0.159119,0.287282 -0.263585,0.601602 -0.307994,0.926997 -0.05197,0.346923 -0.07801,0.697217 -0.07801,1.048002 v 6.353999 h -3.128005 v -6.398 c 0,-0.338003 -0.0072,-0.673001 -0.02116,-1.004001 -0.01134,-0.313663 -0.07487,-0.623229 -0.187994,-0.915999 -0.107943,-0.276623 -0.300435,-0.512126 -0.550001,-0.673001 -0.25799,-0.168 -0.636,-0.253002 -1.134999,-0.253002 -0.198123,0.0083 -0.394383,0.04195 -0.584002,0.100006 -0.258368,0.07446 -0.498455,0.201827 -0.704999,0.373985 -0.227981,0.183987 -0.421999,0.449 -0.583997,0.794003 -0.161008,0.345978 -0.242003,0.797998 -0.242003,1.356998 v 6.618999 H 6.99942 V 10.590001 Z"/>
   <path d="M 2,2.0000001 V 30 h 3 v 2 H 0 V 9.2650922e-8 L 5,0 v 2 z"/>
</svg>
</symbol>
<symbol id="simplex" fill-rule="evenodd" clip-rule="evenodd" stroke-linejoin="round" stroke-miterlimit="1.414" viewBox="0 0 16 16"><svg viewBox="0 0 34 34" fill="none" xmlns="http://www.w3.org/2000/svg">
<g clip-path="url(#clip0_14_10)">
<path fill-rule="evenodd" clip-rule="evenodd" d="M3.02972 8.59396L8.62219 14.186L14.3703 8.43848L17.1668 11.2346L11.4182 16.982L17.0112 22.5742L14.1371 25.448L8.5441 19.8557L2.79651 25.6035L0 22.8074L5.74813 17.0597L0.155656 11.4678L3.02972 8.59396Z" fill="#023789"/>
<path fill-rule="evenodd" clip-rule="evenodd" d="M14.0922 25.5L16.9434 22.6486L16.9423 22.6478L22.6464 16.9456L17.0512 11.3519L17.0518 11.3514L14.2542 8.55418L8.65961 2.95973L11.5114 0.108337L17.106 5.70288L22.8095 0L25.607 2.79722L19.903 8.5L25.4981 14.0943L31.2022 8.39169L33.9997 11.1889L28.2957 16.8914L33.8914 22.4861L31.0396 25.3375L25.4439 19.7428L19.7404 25.4454L25.3361 31.0403L22.4843 33.8917L16.8887 28.2968L11.1862 34L8.38867 31.2028L14.0922 25.5Z" fill="url(#paint0_linear_14_10)"/>
</g>
<defs>
<linearGradient id="paint0_linear_14_10" x1="12.8379" y1="-0.693875" x2="9.54344" y2="31.4337" gradientUnits="userSpaceOnUse">
<stop stop-color="#01F1FF"/>
<stop offset="1" stop-color="#0197FF"/>
</linearGradient>
<clipPath id="clip0_14_10">
<rect width="34" height="34" fill="white"/>
</clipPath>
</defs>
</svg>
</symbol>
<symbol id="tor" fill-rule="evenodd" clip-rule="evenodd" stroke-linejoin="round" stroke-miterlimit="1.414" viewBox="0 0 16 16"><svg version="1.1" id="Layer_1" xmlns="http://www.w3.org/2000/svg" xmlns:xlink="http://www.w3.org/1999/xlink" x="0px" y="0px"
	 viewBox="0 0 150.5 91.1" xml:space="preserve">
<g>
	<g>
		<g id="layer3_20_" transform="translate(-92,-63.999774)">
			<g id="layer5_20_">
				<g id="path2554_21_">
					<path fill="#010101" d="M176.9,70.8l-2.4,9.6c3.4-6.8,8.9-11.9,15.2-16.4c-4.6,5.3-8.8,10.6-11.3,16
						c4.3-6.1,10.1-9.4,16.6-11.7c-8.7,7.7-15.6,16.1-20.8,24.4l-4.2-1.8C170.7,84.2,173.2,77.4,176.9,70.8L176.9,70.8z"/>
				</g>
				<g id="path2536_21_">
					<path fill="#010101" d="M173.7,92.3l2.9,1.5c-0.3,1.9,0.1,6.1,2,7.1c8.4,5.2,16.2,10.8,19.3,16.5c11,19.9-7.7,38.4-24,36.6
						c8.8-6.5,11.4-19.9,8.1-34.6c-1.3-5.7-3.4-10.9-7.1-16.8C173.3,99.9,173.9,96.3,173.7,92.3L173.7,92.3z"/>
				</g>
			</g>
			<g id="layer4_20_">
				<g id="path2540_21_">
					<path fill="#010101" d="M170.5,101.8c-0.6,3.1-1.3,8.7-4,10.8c-1.1,0.8-2.3,1.6-3.5,2.4c-4.9,3.3-9.7,6.4-11.9,14.3
						c-0.5,1.7-0.1,3.5,0.3,5.2c1.2,4.9,4.6,10.1,7.3,13.2c0,0.1,0.5,0.5,0.5,0.6c2.2,2.6,2.9,3.4,11.3,5.3l-0.2,0.9
						c-5.1-1.3-9.2-2.6-11.9-5.6c0-0.1-0.5-0.5-0.5-0.5c-2.8-3.2-6.3-8.6-7.5-13.7c-0.5-2-0.9-3.6-0.3-5.7
						c2.3-8.2,7.3-11.5,12.3-14.9c1.1-0.7,2.5-1.4,3.6-2.3C168.3,110.3,169.4,105.6,170.5,101.8L170.5,101.8z"/>
				</g>
				<g id="path2542_21_">
					<path fill="#010101" d="M172.7,114.8c0.1,3.5-0.3,5.3,0.6,7.8c0.5,1.5,2.4,3.5,2.9,5.5c0.7,2.6,1.5,5.5,1.5,7.3
						c0,2-0.1,5.8-1,9.8c-0.7,3.3-2.2,6.2-4.8,7.8c-2.7-0.5-5.8-1.5-7.6-3.1c-3.6-3.1-6.7-8.3-7.1-12.8c-0.3-3.7,3.1-9.2,7.9-11.9
						c4-2.4,5-5,5.9-9.4c-1.2,3.8-2.4,6.9-6.3,9c-5.7,3-8.6,7.9-8.3,12.7c0.4,6.1,2.8,10.2,7.6,13.5c2,1.4,5.8,2.9,8.2,3.3v-0.3
						c1.8-0.3,4.1-3.3,5.3-7.2c1-3.6,1.4-8.1,1.3-11c-0.1-1.7-0.8-5.3-2.2-8.6c-0.7-1.8-1.9-3.6-2.6-4.9
						C173.1,120.8,173.1,118,172.7,114.8z"/>
				</g>
				<g id="path2544_21_">
					<path fill="#010101" d="M172.1,128.5c0.1,2.4,1,5.4,1.4,8.5c0.3,2.3,0.2,4.6,0.1,6.6c-0.1,2.3-0.8,6.5-1.9,8.6
						c-1-0.5-1.4-1-2.1-1.8c-0.8-1.1-1.4-2.3-1.9-3.6c-0.4-1-0.9-2.2-1.1-3.5c-0.3-2-0.2-5.2,2.1-8.4c1.8-2.6,2.2-2.8,2.8-5.7
						c-0.8,2.6-1.4,2.9-3.3,5.1c-2.1,2.4-2.4,6-2.4,8.9c0,1.2,0.5,2.6,1,3.8c0.5,1.3,1,2.7,1.7,3.7c1.1,1.6,2.5,2.6,3.2,2.7
						c0,0,0,0,0,0c0,0,0,0,0,0v-0.1c1.3-1.5,2.1-2.9,2.4-4.4c0.3-1.8,0.4-3.5,0.6-5.6c0.2-1.8,0.1-4.1-0.4-6.5
						C173.7,133.8,172.6,130.7,172.1,128.5L172.1,128.5z"/>
				</g>
				<g id="path2550_21_">
					<path fill="#010101" d="M172.5,99c0.1,3.5,0.3,10,1.3,12.6c0.3,0.9,2.8,4.7,4.5,9.4c1.2,3.2,1.5,6.2,1.7,7.1
						c0.8,3.8-0.2,10.3-1.5,16.4c-0.7,3.3-3,7.4-5.6,9l-0.5,0.9c1.5-0.1,5.1-3.6,6.4-8.1c2.2-7.5,3-11,2-19.4
						c-0.1-0.8-0.5-3.6-1.8-6.5c-1.9-4.5-4.6-8.8-4.9-9.7C173.4,109.3,172.6,103.1,172.5,99L172.5,99z"/>
				</g>
				<g id="path2552_21_">
					<path fill="#010101" d="M173.7,92.6c-0.2,3.6-0.2,6.4,0.4,9.1c0.7,2.9,4.5,7.1,6.1,11.9c3,9.2,2.2,21.2,0.1,30.5
						c-0.8,3.3-4.6,8.1-8.5,9.6l2.8,0.7c1.5-0.1,5.5-3.8,7.1-8c2.5-6.7,3-14.6,2-23c-0.1-0.8-1.4-8-2.7-11
						c-1.8-4.5-4.7-7.7-5.7-10.5c-0.8-2.1-1.1-7.7-0.6-8.8L173.7,92.6z"/>
				</g>
			</g>
		</g>
		<g id="path2528_16_">
			<path fill="#010101" d="M3.8,8.8h54.1c2,0,3.8,1.7,3.8,3.8v16c0,2.1-1.8,3.8-3.8,3.8H46.8c-2.5,0-3.6,1.4-3.6,3v52.3
				c0,1.8-1.4,3.1-3.1,3.1H21.7c-1.7,0-3-1.3-3-3.1V34.9c0-1.6-1.5-2.6-2.6-2.6H3.8c-2.1,0-3.8-1.7-3.8-3.8v-16
				C0,10.5,1.7,8.8,3.8,8.8z"/>
		</g>
		<g id="path2532_17_">
			<path fill="#010101" d="M142.6,30h4.8c1.8,0,3.2,1.4,3.2,3.1v17.1c0,2.2,0.1,3.1-2.6,3.1c-5.3,0-7.7,2.8-7.7,5.9v28.9
				c0,1.3-1.3,2.5-2.8,2.5h-17.2c-1.5,0-2.8-1.1-2.8-2.5V55.2c0-0.6,0-1.4,0.1-1.9c0.9-12.2,10.5-21.9,22.6-23.2
				C140.5,30.1,141.9,30,142.6,30L142.6,30z"/>
		</g>
	</g>
	<g>
		<path fill="#010101" d="M101.7,46.3c-2.9-2.6-6.5-4.8-10.3-6.9c-1.7-0.9-6.9-5-5.1-10.8l-13.1-5.4l-0.9,0.7
			c4.4,7.9,2.1,12.1-0.1,13.5c-4.4,3-10.8,6.8-13.9,10.1c-6.1,6.3-7.9,12.3-7.3,20.1c0.6,10.1,7.9,18.5,17.8,21.8
			c4.3,1.4,8.3,1.6,12.7,1.6c7.1,0,14.5-1.9,19.8-6.3c5.7-4.7,9-11.8,9-19.1C110.3,58.3,107.2,51.3,101.7,46.3z M99.8,83.2
			c-4.9,4-13.7,6.8-18.4,6.6c-5.2-0.3-10.3-1.1-14.8-3.3c-7.9-3.8-13.1-12.1-13.5-18.8C52.4,54,59,50.1,65.1,45.1
			c3.4-2.8,8.2-4.2,10.9-9.2c0.5-1.1,0.8-3.5,0.2-6c-0.3-0.9-1.5-3.9-2-4.6l9.8,4.3c-1.2,4.5,2.5,9.2,5.5,10.9
			c3,1.7,7.7,4.9,10.6,7.5c5.1,4.5,7.7,10.9,7.7,17.6C107.8,72.3,105,78.9,99.8,83.2z"/>
	</g>
</g>
</svg>
</symbol>
<symbol id="ipfs" fill-rule="evenodd" clip-rule="evenodd" stroke-linejoin="round" stroke-miterlimit="1.414" viewBox="0 0 16 16"><svg xmlns:rdf="http://www.w3.org/1999/02/22-rdf-syntax-ns#" style="enable-background:new" xmlns="http://www.w3.org/2000/svg" xmlns:osb="http://www.openswatchbook.org/uri/2009/osb" version="1.1" xmlns:cc="http://creativecommons.org/ns#" xmlns:xlink="http://www.w3.org/1999/xlink" viewBox="0 0 511.99999 511.99998" xmlns:dc="http://purl.org/dc/elements/1.1/">
<defs>
<linearGradient id="b" y2="771.51" gradientUnits="userSpaceOnUse" x2="527.72" y1="771.51" x1="84.315">
<stop offset="0"/>
</linearGradient>
<linearGradient id="a" y2="771.48" gradientUnits="userSpaceOnUse" x2="512.36" y1="771.48" x1="99.675">
<stop stop-color="#d8d8d8" offset="0"/>
</linearGradient>
</defs>
<g transform="translate(-50.017 -515.51)">
<path d="m84.315 899.51 221.7 128 221.7-128v-256l-221.7-127.99-221.7 128z" fill="url(#b)"/>
<path d="m283.13 546.35-160.74 92.806c0.32126 2.8543 0.32125 5.7352 0 8.5894l160.75 92.806c13.554-10.001 32.043-10.001 45.597 0l160.75-92.807c-0.32126-2.8543-0.32293-5.7338-0.001-8.588l-160.74-92.806c-13.554 10.001-32.044 10.001-45.599 0zm221.79 127.03-160.92 93.84c1.884 16.739-7.3611 32.751-22.799 39.489l0.18062 184.58c2.6325 1.1489 5.1267 2.5886 7.438 4.294l160.75-92.805c-1.884-16.739 7.3611-32.752 22.799-39.49v-185.61c-2.6325-1.1489-5.1281-2.5886-7.4394-4.294zm-397.81 1.0315c-2.3112 1.7054-4.8054 3.1465-7.438 4.2954v185.61c15.438 6.7378 24.683 22.75 22.799 39.489l160.74 92.806c2.3112-1.7054 4.8069-3.1465 7.4394-4.2954v-185.61c-15.438-6.7378-24.683-22.75-22.799-39.489l-160.74-92.81z" marker-start="" fill="url(#a)"/>
</g>
<g transform="translate(0 -196.66)">
<path d="m256 708.66 221.7-128v-256l-221.7 128v256z" fill-opacity=".25098"/>
<path d="m256 708.66v-256l-221.7-128v256l221.7 128z" fill-opacity=".039216"/>
<path d="m34.298 324.66 221.7 128 221.7-128-221.7-128-221.7 128z" fill-opacity=".13018"/>
</g>
</svg>
</symbol>
<symbol id="ipfs" fill-rule="evenodd" clip-rule="evenodd" stroke-linejoin="round" stroke-miterlimit="1.414" viewBox="0 0 16 16"><svg xmlns:rdf="http://www.w3.org/1999/02/22-rdf-syntax-ns#" style="enable-background:new" xmlns="http://www.w3.org/2000/svg" xmlns:osb="http://www.openswatchbook.org/uri/2009/osb" version="1.1" xmlns:cc="http://creativecommons.org/ns#" xmlns:xlink="http://www.w3.org/1999/xlink" viewBox="0 0 511.99999 511.99998" xmlns:dc="http://purl.org/dc/elements/1.1/">
<defs>
<linearGradient id="b" y2="771.51" gradientUnits="userSpaceOnUse" x2="527.72" y1="771.51" x1="84.315">
<stop offset="0"/>
</linearGradient>
<linearGradient id="a" y2="771.48" gradientUnits="userSpaceOnUse" x2="512.36" y1="771.48" x1="99.675">
<stop stop-color="#d8d8d8" offset="0"/>
</linearGradient>
</defs>
<g transform="translate(-50.017 -515.51)">
<path d="m84.315 899.51 221.7 128 221.7-128v-256l-221.7-127.99-221.7 128z" fill="url(#b)"/>
<path d="m283.13 546.35-160.74 92.806c0.32126 2.8543 0.32125 5.7352 0 8.5894l160.75 92.806c13.554-10.001 32.043-10.001 45.597 0l160.75-92.807c-0.32126-2.8543-0.32293-5.7338-0.001-8.588l-160.74-92.806c-13.554 10.001-32.044 10.001-45.599 0zm221.79 127.03-160.92 93.84c1.884 16.739-7.3611 32.751-22.799 39.489l0.18062 184.58c2.6325 1.1489 5.1267 2.5886 7.438 4.294l160.75-92.805c-1.884-16.739 7.3611-32.752 22.799-39.49v-185.61c-2.6325-1.1489-5.1281-2.5886-7.4394-4.294zm-397.81 1.0315c-2.3112 1.7054-4.8054 3.1465-7.438 4.2954v185.61c15.438 6.7378 24.683 22.75 22.799 39.489l160.74 92.806c2.3112-1.7054 4.8069-3.1465 7.4394-4.2954v-185.61c-15.438-6.7378-24.683-22.75-22.799-39.489l-160.74-92.81z" marker-start="" fill="url(#a)"/>
</g>
<g transform="translate(0 -196.66)">
<path d="m256 708.66 221.7-128v-256l-221.7 128v256z" fill-opacity=".25098"/>
<path d="m256 708.66v-256l-221.7-128v256l221.7 128z" fill-opacity=".039216"/>
<path d="m34.298 324.66 221.7 128 221.7-128-221.7-128-221.7 128z" fill-opacity=".13018"/>
</g>
</svg>
</symbol>
<symbol id="github" fill-rule="evenodd" clip-rule="evenodd" stroke-linejoin="round" stroke-miterlimit="1.414" viewBox="0 0 16 16"><path d="M8 0C3.58 0 0 3.582 0 8c0 3.535 2.292 6.533 5.47 7.59.4.075.547-.172.547-.385 0-.19-.007-.693-.01-1.36-2.226.483-2.695-1.073-2.695-1.073-.364-.924-.89-1.17-.89-1.17-.725-.496.056-.486.056-.486.803.056 1.225.824 1.225.824.714 1.223 1.873.87 2.33.665.072-.517.278-.87.507-1.07-1.777-.2-3.644-.888-3.644-3.953 0-.873.31-1.587.823-2.147-.09-.202-.36-1.015.07-2.117 0 0 .67-.215 2.2.82.64-.178 1.32-.266 2-.27.68.004 1.36.092 2 .27 1.52-1.035 2.19-.82 2.19-.82.43 1.102.16 1.915.08 2.117.51.56.82 1.274.82 2.147 0 3.073-1.87 3.75-3.65 3.947.28.24.54.73.54 1.48 0 1.07-.01 1.93-.01 2.19 0 .21.14.46.55.38C13.71 14.53 16 11.53 16 8c0-4.418-3.582-8-8-8"/>
</symbol>
<symbol id="rss" fill-rule="evenodd" clip-rule="evenodd" stroke-linejoin="round" stroke-miterlimit="1.414" viewBox="0 0 16 16"><path d="M12.8 16C12.8 8.978 7.022 3.2 0 3.2V0c8.777 0 16 7.223 16 16h-3.2zM2.194 11.61c1.21 0 2.195.985 2.195 2.196 0 1.21-.99 2.194-2.2 2.194C.98 16 0 15.017 0 13.806c0-1.21.983-2.195 2.194-2.195zM10.606 16h-3.11c0-4.113-3.383-7.497-7.496-7.497v-3.11c5.818 0 10.606 4.79 10.606 10.607z"/>
</symbol>
</svg>
